<?xml version="1.0" encoding="UTF-8"?>
<svg width="18px" height="18px" viewBox="0 0 18 18" version="1.1" xmlns="http://www.w3.org/2000/svg" xmlns:xlink="http://www.w3.org/1999/xlink">
    <title>1EB6B325-ADE3-4D78-9A26-ADE9029524A6</title>
    <g id="Web" stroke="none" stroke-width="1" fill="none" fill-rule="evenodd">
        <g id="Tringhub_Home_Final" transform="translate(-1368.000000, -218.000000)">
            <g id="project_gallery" transform="translate(996.000000, 188.000000)">
                <g id="select_project_dropdown" transform="translate(286.000000, 24.000000)">
                    <g id="icon-down_arrow" transform="translate(86.000000, 6.000000)">
                        <rect id="path" x="0" y="0" width="18" height="18"></rect>
                        <path d="M12.3818406,7.27931334 L8.97628443,10.679568 L5.61815936,7.27931334 C5.24816089,6.90689555 4.65059953,6.90689555 4.28060106,7.27931334 C4.10101475,7.45966764 4,7.70517358 4,7.96128531 C4,8.21739704 4.10101475,8.46290297 4.28060106,8.64325728 L8.30276217,12.7158786 C8.48088186,12.897718 8.72334595,13 8.97628443,13 C9.2292229,13 9.47168699,12.897718 9.64980669,12.7158786 L13.7193989,8.64325728 C13.8989853,8.46290297 14,8.21739704 14,7.96128531 C14,7.70517358 13.8989853,7.45966764 13.7193989,7.27931334 C13.3494005,6.90689555 12.7518391,6.90689555 12.3818406,7.27931334 Z" id="Path" fill="#232323" fill-rule="nonzero"></path>
                    </g>
                </g>
            </g>
        </g>
    </g>
</svg>